<svg width="438" height="595" viewBox="0 0 438 595" fill="none" xmlns="http://www.w3.org/2000/svg">
<rect width="438" height="595" fill="#F5F5F5"/>
<g clip-path="url(#clip0_0_1)">
<path fill-rule="evenodd" clip-rule="evenodd" d="M94.8332 618.471C170.497 642.289 248.272 681.936 328.083 609.885C407.895 537.834 458.099 474.684 425.88 392.818C393.66 310.951 261.509 361.693 223.257 288.508C185.004 215.323 269.426 149.099 233.184 83.9611C196.941 18.8234 169.06 -22.9315 52.1768 18.2544C-64.7071 59.4414 -54.1091 164.744 -143.043 226.252C-231.978 287.76 -328.24 379.901 -196.613 544.811C-64.986 709.722 19.1702 594.652 94.8322 618.47L94.8332 618.471Z" stroke="#F9E0BB"/>
<path fill-rule="evenodd" clip-rule="evenodd" d="M85.4295 580.532C146.981 599.873 210.25 632.067 275.175 573.561C340.1 515.053 380.941 463.775 354.731 397.298C328.52 330.821 221.017 372.023 189.899 312.597C158.781 253.169 227.457 199.393 197.974 146.5C168.491 93.6067 145.811 59.7014 50.7277 93.1451C-44.3554 126.589 -35.735 212.097 -108.08 262.042C-180.427 311.987 -258.735 386.807 -151.658 520.718C-44.5815 654.629 23.8783 561.191 85.4295 580.532Z" stroke="#F9E0BB"/>
<path fill-rule="evenodd" clip-rule="evenodd" d="M67.7639 555.335C117.7 571.114 169.029 597.383 221.702 549.645C274.375 501.906 307.51 460.066 286.246 405.825C264.982 351.584 177.767 385.203 152.521 336.715C127.276 288.225 182.993 244.347 159.074 201.189C135.155 158.033 116.755 130.368 39.6146 157.657C-37.5253 184.945 -30.5321 254.715 -89.2261 295.467C-147.92 336.221 -211.452 397.27 -124.582 506.532C-37.7126 615.794 17.8288 539.554 67.7639 555.335Z" stroke="#F9E0BB"/>
<path fill-rule="evenodd" clip-rule="evenodd" d="M49.3105 524.537C89.5848 537.2 130.983 558.275 173.465 519.973C215.947 481.672 242.67 448.103 225.52 404.584C208.37 361.065 138.029 388.038 117.668 349.134C97.3069 310.23 142.243 275.026 122.952 240.399C103.661 205.772 88.8201 183.576 26.605 205.471C-35.6101 227.364 -29.9691 283.343 -77.3069 316.039C-124.645 348.735 -175.883 397.716 -105.821 485.38C-35.7583 573.046 9.0363 511.876 49.3105 524.537Z" stroke="#F9E0BB"/>
<path fill-rule="evenodd" clip-rule="evenodd" d="M44.5762 504.668C77.4692 515.017 111.28 532.244 145.975 500.937C180.67 469.629 202.496 442.19 188.489 406.618C174.482 371.046 117.034 393.094 100.405 361.294C83.7752 329.495 120.476 300.718 104.721 272.415C88.9646 244.112 76.8444 225.969 26.0329 243.866C-24.7786 261.761 -20.1718 307.517 -58.8338 334.242C-97.4948 360.969 -139.342 401.005 -82.1214 472.661C-24.9001 544.317 11.6842 494.318 44.5762 504.668Z" stroke="#F9E0BB"/>
<path fill-rule="evenodd" clip-rule="evenodd" d="M35.4578 490.293C62.162 498.696 89.6121 512.687 117.781 487.263C145.95 461.839 163.669 439.558 152.297 410.671C140.925 381.784 94.2848 399.688 80.7833 373.865C67.2817 348.043 97.0782 324.675 84.2869 301.691C71.4947 278.707 61.6549 263.973 20.4019 278.506C-20.851 293.038 -17.1111 330.194 -48.4988 351.897C-79.8875 373.601 -113.863 406.113 -67.4066 464.301C-20.9492 522.49 8.75259 481.889 35.4578 490.293Z" stroke="#F9E0BB"/>
</g>
<defs>
<clipPath id="clip0_0_1">
<rect width="436" height="593" fill="white" transform="translate(436.512 594.358) rotate(-179.906)"/>
</clipPath>
</defs>
</svg>
